<svg xmlns="http://www.w3.org/2000/svg" x="0px" y="0px"
     width="25" height="25"
     viewBox="0 0 172 172"
     style=" fill:#000000;">
    <g fill="none" fill-rule="nonzero" stroke="none" stroke-width="1" stroke-linecap="butt" stroke-linejoin="miter"
       stroke-miterlimit="10" stroke-dasharray="" stroke-dashoffset="0" font-family="none" font-weight="none"
       font-size="none" text-anchor="none" style="mix-blend-mode: normal">
        <path d="M0,172v-172h172v172z" fill="none"></path>
        <g fill="#000000">
            <path
                d="M51.6,6.88c-11.35469,0 -20.64,9.28531 -20.64,20.64c0,11.35469 9.28531,20.64 20.64,20.64c11.35469,0 20.64,-9.28531 20.64,-20.64c0,-11.35469 -9.28531,-20.64 -20.64,-20.64zM143.78125,6.92031c-5.11969,0.16125 -10.19906,2.20375 -14.12281,6.1275l-34.05062,34.05062c-7.64594,7.65938 -16.79688,20.65344 -26.43156,34.10438c-9.62125,13.45094 -19.65906,27.31844 -28.28594,36.09312l-20.57281,20.57281c-3.53406,-1.42437 -7.51156,-1.42437 -10.37375,1.42438c-0.645,0.645 -1.00781,1.51844 -0.99437,2.44562c-2.02906,3.69531 -2.12313,8.23719 0.99437,11.36813l9.29875,9.28531c3.13094,3.13094 7.65938,3.02344 11.36813,1.00781c0.02687,-0.01344 0.05375,-0.02687 0.08062,-0.04031l-0.08062,0.04031c0.91375,0 1.78719,-0.36281 2.44562,-1.00781c2.84875,-2.84875 2.84875,-6.83969 1.41094,-10.37375l20.59969,-20.58625c0.01344,0 0.01344,-0.01344 0.02687,-0.01344c8.58656,-8.76125 22.42719,-18.89312 35.91844,-28.55469c13.49125,-9.675 26.56594,-18.8125 34.22531,-26.47188l33.37875,-33.36531c7.26969,-7.26969 8.93594,-18.83938 2.76813,-27.47969c0,-0.01344 -0.01344,-0.02687 -0.02688,-0.04031c-3.84312,-5.2675 -9.52719,-8.12969 -15.3725,-8.54625c-0.72562,-0.05375 -1.46469,-0.06719 -2.20375,-0.04031zM145.46094,13.67938c3.88344,0.26875 7.64594,2.21719 10.33344,5.88562c4.13875,5.805 3.06375,13.49125 -2.05594,18.5975l-33.36531,33.36531c-6.78594,6.78594 -19.84719,16.05781 -33.36531,25.74625c-13.51813,9.675 -27.53344,19.83375 -36.83219,29.30719l-19.37688,19.40375l-4.43437,-4.43437l19.41719,-19.40375c0,-0.01344 0.01344,-0.01344 0.01344,-0.02688c9.27188,-9.44656 19.35,-23.44844 28.98469,-36.91281c9.63469,-13.46437 18.89313,-26.445 25.6925,-33.23094l34.06406,-34.06406c3.07719,-3.07719 7.05469,-4.50156 10.92469,-4.23281zM50.02781,13.92125c-1.12875,2.29781 -2.80844,4.64938 -5.03906,6.88c-2.2575,2.2575 -4.64937,3.95063 -6.9875,5.07938c0.7525,-6.31563 5.68406,-11.24719 12.02656,-11.95938zM55.42969,14.36469c4.59563,1.33031 8.14313,4.91813 9.39281,9.52719c-3.5475,1.29 -7.04125,3.37281 -10.19906,6.53062c-3.14437,3.14438 -5.4825,6.61125 -6.85312,10.26625c-4.54188,-1.31687 -8.0625,-4.85094 -9.3525,-9.40625c3.62812,-1.37062 7.095,-3.70875 10.22594,-6.83969c3.09063,-3.09063 5.40188,-6.50375 6.78594,-10.07813zM65.18531,29.29375c-0.80625,6.26188 -5.73781,11.12625 -12.04,11.825c1.12875,-2.35156 2.84875,-4.75687 5.11969,-7.04125c2.21719,-2.21719 4.55531,-3.74906 6.92031,-4.78375zM16.85063,143.39156c0.76594,0 1.53187,0.25531 2.0425,0.76594c0.30906,0.30906 0.67187,0.55094 1.075,0.71219l7.49812,7.51156c0.17469,0.40313 0.41656,0.76594 0.72563,1.075c1.00781,1.00781 1.00781,3.05031 0,4.07156c-1.02125,1.02125 -3.06375,1.02125 -4.085,0l-9.29875,-9.28531c-1.00781,-1.02125 -1.00781,-3.06375 0,-4.085c0.51062,-0.51062 1.27656,-0.76594 2.0425,-0.76594z"></path>
        </g>
    </g>
</svg>
