<svg xmlns="http://www.w3.org/2000/svg" x="0px" y="0px"
     width="25" height="25"
     viewBox="0 0 172 172"
     style=" fill:#000000;">
    <g fill="none" fill-rule="nonzero" stroke="none" stroke-width="1" stroke-linecap="butt" stroke-linejoin="miter"
       stroke-miterlimit="10" stroke-dasharray="" stroke-dashoffset="0" font-family="none" font-weight="none"
       font-size="none" text-anchor="none" style="mix-blend-mode: normal">
        <path d="M0,172v-172h172v172z" fill="none"></path>
        <g fill="#000000">
            <path
                d="M85.94625,6.82625c-0.20156,0.01344 -0.38969,0.02688 -0.59125,0.06719c-24.24125,0.18813 -45.9025,11.31438 -60.29406,28.68906c-0.36281,0.29563 -0.67187,0.67188 -0.87344,1.08844c-10.69625,13.37031 -17.14625,30.27469 -17.29406,48.65719c-0.08062,0.43 -0.08062,0.87344 0,1.30344c0.14781,18.30187 6.53063,35.12562 17.10594,48.46906c0.25531,0.61812 0.68531,1.15562 1.23625,1.53187c14.39156,17.24031 35.95875,28.2725 60.0925,28.47406c0.43,0.08062 0.87344,0.08062 1.30344,0c24.14719,-0.18813 45.74125,-11.22031 60.13281,-28.47406c0.55094,-0.37625 0.9675,-0.91375 1.22281,-1.51844c10.58875,-13.34344 16.97156,-30.15375 17.11938,-48.44219c0.08062,-0.43 0.08062,-0.87344 0,-1.30344c-0.14781,-18.39594 -6.59781,-35.30031 -17.29406,-48.68406c-0.20156,-0.41656 -0.49719,-0.79281 -0.86,-1.10188c-14.39156,-17.37469 -36.06625,-28.50094 -60.32094,-28.68906c-0.22844,-0.04031 -0.45688,-0.06719 -0.68531,-0.06719zM82.56,13.84063v68.71937h-24.20094c-1.10188,-18.78562 -11.08594,-35.17937 -25.81344,-45.06937c12.49687,-13.76 30.16719,-22.70938 50.01437,-23.65zM89.44,13.84063c19.84719,0.94062 37.5175,9.89 50.00094,23.65c-14.71406,9.89 -24.69812,26.28375 -25.8,45.06937h-24.20094zM28.165,42.82531c13.19563,8.61344 22.22563,23.05875 23.3275,39.73469h-37.65187c0.69875,-14.88875 5.95281,-28.54125 14.32437,-39.73469zM143.835,42.82531c8.37156,11.19344 13.62563,24.84594 14.31094,39.73469h-37.63844c1.10188,-16.67594 10.13188,-31.12125 23.3275,-39.73469zM13.84063,89.44h37.65187c-1.10187,16.67594 -10.13187,31.12125 -23.3275,39.73469c-8.37156,-11.19344 -13.62562,-24.84594 -14.32437,-39.73469zM58.35906,89.44h24.20094v68.70594c-19.84719,-0.92719 -37.5175,-9.87656 -50.01437,-23.63656c14.7275,-9.89 24.71156,-26.28375 25.81344,-45.06938zM89.44,89.44h24.20094c1.10188,18.78563 11.08594,35.17938 25.8,45.06938c-12.48344,13.76 -30.15375,22.70937 -50.00094,23.63656zM120.5075,89.44h37.63844c-0.68531,14.88875 -5.93937,28.54125 -14.31094,39.73469c-13.19562,-8.61344 -22.22562,-23.05875 -23.3275,-39.73469z"></path>
        </g>
    </g>
</svg>
