<svg xmlns="http://www.w3.org/2000/svg" x="0px" y="0px"
     width="25" height="25"
     viewBox="0 0 50 50"
     style=" fill:#000000;">
    <path
        d="M 17.5 5 C 15.027344 5 13 7.027344 13 9.5 C 13 11.972656 15.027344 14 17.5 14 C 19.972656 14 22 11.972656 22 9.5 C 22 7.027344 19.972656 5 17.5 5 Z M 17.5 7 C 18.890625 7 20 8.109375 20 9.5 C 20 10.890625 18.890625 12 17.5 12 C 16.109375 12 15 10.890625 15 9.5 C 15 8.109375 16.109375 7 17.5 7 Z M 28.5 10 C 26.027344 10 24 12.027344 24 14.5 C 24 16.972656 26.027344 19 28.5 19 C 30.972656 19 33 16.972656 33 14.5 C 33 12.027344 30.972656 10 28.5 10 Z M 28.5 12 C 29.890625 12 31 13.109375 31 14.5 C 31 15.890625 29.890625 17 28.5 17 C 27.109375 17 26 15.890625 26 14.5 C 26 13.109375 27.109375 12 28.5 12 Z M 13 14 C 11.691406 14 10.605469 14.710938 9.878906 15.683594 C 9.738281 15.765625 9.617188 15.878906 9.53125 16.015625 L 4.691406 23.75 C 4.667969 23.789063 4.648438 23.824219 4.632813 23.859375 C 4.238281 24.480469 4 25.210938 4 26 L 4 33.347656 L 0.441406 39.441406 C 0.351563 39.59375 0.304688 39.769531 0.304688 39.949219 C 0.167969 40.285156 0 40.609375 0 41 C 0 42.644531 1.355469 44 3 44 C 3.9375 44 4.707031 43.496094 5.257813 42.820313 C 5.40625 42.730469 5.53125 42.605469 5.617188 42.453125 L 9.542969 35.59375 C 9.574219 35.539063 9.597656 35.480469 9.617188 35.421875 L 9.628906 35.394531 C 9.761719 35.148438 9.855469 34.886719 9.914063 34.609375 C 9.9375 34.546875 9.953125 34.484375 9.964844 34.421875 L 10.558594 30.808594 L 13.90625 33.992188 L 16.113281 41.8125 C 16.171875 42.023438 16.300781 42.207031 16.480469 42.339844 C 16.984375 43.277344 17.863281 44 19 44 C 20.644531 44 22 42.644531 22 41 C 22 40.792969 21.949219 40.628906 21.910156 40.453125 C 21.914063 40.355469 21.90625 40.261719 21.882813 40.171875 L 19.945313 32.425781 L 19.933594 32.375 L 19.933594 32.371094 C 19.929688 32.355469 19.917969 32.3125 19.921875 32.324219 C 19.917969 32.320313 19.917969 32.316406 19.917969 32.3125 L 19.886719 32.183594 C 19.863281 32.089844 19.824219 32 19.777344 31.917969 L 19.765625 31.902344 C 19.628906 31.554688 19.445313 31.230469 19.1875 30.953125 C 19.183594 30.945313 19.175781 30.9375 19.167969 30.929688 C 19.164063 30.925781 19.160156 30.925781 19.15625 30.921875 C 19.230469 30.996094 19.21875 30.976563 19.113281 30.871094 L 19.15625 30.917969 L 14.351563 25.441406 L 15.179688 23.890625 L 16.550781 26.425781 C 17.074219 27.394531 18.09375 28 19.191406 28 L 22.207031 28 C 22.078125 28.304688 22 28.636719 22 29 C 22 30.644531 23.355469 32 25 32 C 25.414063 32 25.816406 31.914063 26.175781 31.761719 L 26.105469 31.785156 L 32.355469 29.675781 C 32.617188 29.585938 32.832031 29.394531 32.949219 29.140625 L 34.164063 26.457031 L 35.394531 27.59375 L 31.089844 31.695313 C 31.007813 31.773438 30.941406 31.863281 30.890625 31.960938 C 30.472656 32.394531 30.164063 32.929688 30.0625 33.542969 C 30.054688 33.554688 30.050781 33.570313 30.046875 33.582031 L 28.203125 39.933594 L 28.246094 39.820313 C 28.152344 40.039063 28.089844 40.257813 28.050781 40.472656 L 28.078125 40.363281 L 28.0625 40.410156 C 28.035156 40.515625 28.019531 40.621094 28.027344 40.730469 C 28.015625 40.816406 28 40.882813 28 41 C 28 42.644531 29.355469 44 31 44 C 32.503906 44 33.757813 42.867188 33.964844 41.417969 L 33.925781 41.582031 L 35.769531 35.765625 L 38.558594 33.5 L 38.109375 35.203125 C 38.089844 35.285156 38.078125 35.371094 38.078125 35.453125 C 38.042969 35.625 38 35.789063 38 36 C 38 36.839844 38.367188 37.589844 38.917969 38.125 C 38.960938 38.183594 39.011719 38.238281 39.066406 38.28125 L 45.128906 43.34375 C 45.3125 43.496094 45.542969 43.578125 45.78125 43.578125 C 46.171875 43.761719 46.535156 44 47 44 C 48.644531 44 50 42.644531 50 41 C 50 40.25 49.667969 39.609375 49.21875 39.089844 C 49.152344 38.929688 49.050781 38.789063 48.917969 38.683594 L 44.578125 35.21875 L 45.949219 28.6875 C 45.96875 28.589844 45.972656 28.484375 45.964844 28.382813 C 45.980469 28.265625 46 28.164063 46 28 C 46 26.933594 45.519531 26.011719 44.84375 25.296875 C 44.800781 25.203125 44.75 25.117188 44.683594 25.039063 L 39.011719 18.367188 C 38.914063 18.25 38.789063 18.160156 38.644531 18.097656 C 37.941406 17.453125 37.035156 17 36 17 C 35.636719 17 35.324219 17.09375 35.011719 17.175781 C 34.886719 17.175781 34.765625 17.191406 34.652344 17.234375 L 32.019531 18.15625 C 31.878906 18.207031 31.75 18.285156 31.644531 18.390625 L 31.621094 18.417969 C 31.101563 18.695313 30.695313 19.101563 30.417969 19.617188 C 30.417969 19.617188 30.414063 19.621094 30.414063 19.621094 C 30.316406 19.71875 30.242188 19.832031 30.191406 19.957031 L 28.214844 24.921875 L 26.96875 25.292969 C 26.980469 25.195313 27 25.097656 27 25 C 27 23.355469 25.644531 22 24 22 L 20.730469 22 L 18.8125 16.972656 C 18.765625 16.839844 18.6875 16.722656 18.589844 16.621094 L 18.582031 16.617188 C 18.304688 16.101563 17.898438 15.695313 17.382813 15.417969 L 17.355469 15.390625 C 17.25 15.285156 17.121094 15.207031 16.980469 15.15625 L 14.351563 14.234375 C 14.230469 14.191406 14.105469 14.171875 13.980469 14.175781 C 13.667969 14.09375 13.359375 14 13 14 Z M 13 16 C 13.21875 16 13.433594 16.042969 13.664063 16.125 C 13.886719 16.203125 14.128906 16.203125 14.347656 16.121094 L 14.042969 16.246094 L 16.105469 16.96875 L 15.96875 16.832031 C 16.074219 16.9375 16.199219 17.015625 16.335938 17.066406 C 16.617188 17.167969 16.832031 17.382813 16.933594 17.664063 C 16.980469 17.789063 17.050781 17.90625 17.140625 18.003906 L 17.019531 17.886719 L 19.105469 23.355469 C 19.253906 23.742188 19.625 24 20.039063 24 L 24 24 C 24.566406 24 25 24.433594 25 25 C 25 25.566406 24.566406 26 24 26 L 19.191406 26 C 18.824219 26 18.488281 25.800781 18.3125 25.476563 C 18.3125 25.476563 18.3125 25.476563 18.3125 25.472656 L 16.050781 21.304688 C 15.878906 20.980469 15.539063 20.78125 15.171875 20.78125 C 14.800781 20.78125 14.464844 20.984375 14.292969 21.308594 L 12.261719 25.109375 C 12.066406 25.476563 12.117188 25.925781 12.390625 26.238281 L 17.65625 32.238281 C 17.667969 32.253906 17.683594 32.269531 17.699219 32.285156 C 17.625 32.210938 17.640625 32.230469 17.746094 32.335938 L 17.699219 32.285156 C 17.707031 32.296875 17.714844 32.308594 17.726563 32.320313 C 17.820313 32.421875 17.898438 32.546875 17.945313 32.699219 C 17.964844 32.761719 17.992188 32.820313 18.023438 32.878906 L 17.984375 32.8125 C 17.984375 32.828125 17.988281 32.84375 17.992188 32.859375 L 19.71875 39.761719 L 20.589844 39.46875 C 20.070313 39.640625 19.789063 40.195313 19.949219 40.714844 C 19.988281 40.832031 20 40.921875 20 41 C 20 41.566406 19.566406 42 19 42 C 18.535156 42 18.164063 41.691406 18.046875 41.265625 C 18.039063 41.234375 18.027344 41.203125 18.015625 41.171875 C 18.011719 41.167969 18.011719 41.167969 18.011719 41.164063 L 15.753906 33.1875 C 15.707031 33.011719 15.609375 32.855469 15.480469 32.734375 L 10.5625 28.058594 C 10.296875 27.800781 9.910156 27.714844 9.558594 27.832031 C 9.207031 27.953125 8.949219 28.253906 8.890625 28.621094 L 8.007813 34 L 8.035156 33.921875 C 8.007813 33.992188 7.992188 34.066406 7.980469 34.140625 C 7.960938 34.292969 7.910156 34.421875 7.839844 34.53125 C 7.804688 34.589844 7.773438 34.648438 7.75 34.710938 L 7.757813 34.679688 L 4.351563 40.640625 L 5.195313 41.0625 C 4.714844 40.820313 4.128906 41.003906 3.867188 41.472656 C 3.695313 41.792969 3.382813 42 3 42 C 2.433594 42 2 41.566406 2 41 C 2 40.808594 2.054688 40.640625 2.15625 40.480469 C 2.441406 40.019531 2.3125 39.414063 1.859375 39.113281 L 2.640625 39.636719 L 5.863281 34.125 C 5.953125 33.96875 6 33.796875 6 33.621094 L 6 26 C 6 25.574219 6.132813 25.191406 6.359375 24.867188 C 6.414063 24.785156 6.457031 24.695313 6.488281 24.597656 L 6.460938 24.691406 L 11.050781 17.355469 L 10.765625 17.46875 C 10.976563 17.382813 11.152344 17.230469 11.265625 17.03125 C 11.613281 16.414063 12.246094 16 13 16 Z M 36 19 C 36.59375 19 37.113281 19.257813 37.484375 19.675781 C 37.617188 19.824219 37.792969 19.933594 37.988281 19.980469 L 37.695313 19.90625 L 43.042969 26.195313 L 42.996094 26.0625 C 43.054688 26.230469 43.152344 26.375 43.285156 26.488281 C 43.726563 26.863281 44 27.390625 44 28 C 44 28.054688 43.988281 28.148438 43.96875 28.296875 C 43.941406 28.464844 43.957031 28.632813 44.015625 28.789063 L 43.929688 28.5625 L 42.496094 35.414063 C 42.417969 35.78125 42.554688 36.164063 42.847656 36.402344 L 47.535156 40.140625 C 47.570313 40.179688 47.601563 40.210938 47.640625 40.242188 C 47.867188 40.433594 48 40.691406 48 41 C 48 41.566406 47.566406 42 47 42 C 46.773438 42 46.570313 41.921875 46.390625 41.78125 C 46.367188 41.761719 46.339844 41.746094 46.3125 41.730469 C 46.3125 41.726563 46.3125 41.726563 46.308594 41.722656 L 40.507813 36.878906 L 40.597656 37.066406 C 40.539063 36.945313 40.457031 36.839844 40.355469 36.753906 C 40.132813 36.5625 40 36.304688 40 36 C 40 35.9375 40.011719 35.851563 40.046875 35.730469 C 40.089844 35.570313 40.09375 35.40625 40.058594 35.246094 L 40.109375 35.464844 L 41.269531 31.050781 C 41.378906 30.632813 41.207031 30.191406 40.84375 29.957031 C 40.480469 29.722656 40.007813 29.75 39.671875 30.019531 L 34.277344 34.402344 C 34.125 34.527344 34.015625 34.691406 33.953125 34.875 L 32.019531 40.976563 C 32.003906 41.03125 31.992188 41.082031 31.984375 41.140625 C 31.914063 41.628906 31.511719 42 31 42 C 30.433594 42 30 41.566406 30 41 C 30 40.988281 30.003906 40.945313 30.015625 40.851563 C 30.019531 40.84375 30.019531 40.835938 30.019531 40.828125 C 30.019531 40.828125 30.019531 40.824219 30.019531 40.824219 C 30.039063 40.734375 30.058594 40.664063 30.082031 40.605469 C 30.097656 40.570313 30.113281 40.53125 30.125 40.492188 L 31.9375 34.238281 L 31.902344 34.308594 C 31.964844 34.1875 32.003906 34.054688 32.015625 33.921875 C 32.039063 33.628906 32.175781 33.390625 32.390625 33.21875 C 32.492188 33.136719 32.582031 33.035156 32.644531 32.917969 L 32.59375 33.023438 L 37.546875 28.304688 C 37.746094 28.113281 37.859375 27.847656 37.855469 27.574219 C 37.855469 27.296875 37.738281 27.035156 37.535156 26.84375 L 34.503906 24.046875 C 34.269531 23.828125 33.941406 23.738281 33.628906 23.800781 C 33.3125 23.863281 33.050781 24.074219 32.917969 24.367188 L 31.304688 27.921875 L 25.464844 29.890625 C 25.441406 29.902344 25.414063 29.910156 25.390625 29.921875 C 25.269531 29.972656 25.140625 30 25 30 C 24.433594 30 24 29.566406 24 29 C 24 28.550781 24.289063 28.1875 24.695313 28.058594 C 24.726563 28.046875 24.757813 28.035156 24.789063 28.019531 C 24.789063 28.019531 24.792969 28.019531 24.792969 28.019531 L 29.246094 26.703125 C 29.539063 26.617188 29.777344 26.398438 29.890625 26.113281 L 31.972656 20.890625 L 31.832031 21.03125 C 31.9375 20.925781 32.015625 20.800781 32.066406 20.660156 C 32.167969 20.382813 32.386719 20.167969 32.664063 20.066406 C 32.789063 20.019531 32.90625 19.949219 33.003906 19.859375 L 32.898438 19.96875 L 35.023438 19.21875 L 34.75 19.152344 C 34.945313 19.199219 35.148438 19.191406 35.335938 19.125 C 35.570313 19.042969 35.785156 19 36 19 Z"></path>
</svg>
