<svg xmlns="http://www.w3.org/2000/svg" x="0px" y="0px"
     width="25" height="25"
     viewBox="0 0 172 172"
     style=" fill:#000000;">
    <g fill="none" fill-rule="nonzero" stroke="none" stroke-width="1" stroke-linecap="butt" stroke-linejoin="miter"
       stroke-miterlimit="10" stroke-dasharray="" stroke-dashoffset="0" font-family="none" font-weight="none"
       font-size="none" text-anchor="none" style="mix-blend-mode: normal">
        <path d="M0,172v-172h172v172z" fill="none"></path>
        <g fill="#000000">
            <path
                d="M148.44406,6.88c-1.54531,0 -2.88906,1.02125 -3.31906,2.49938l-23.22,80.82656c-4.04469,14.02875 -16.75656,23.31406 -31.08094,23.31406h-4.28656c-0.20156,-0.02687 -0.38969,-0.05375 -0.59125,-0.05375c-0.16125,0.01344 -0.33594,0.02688 -0.49719,0.05375h-47.07156c-0.20156,-0.02687 -0.38969,-0.05375 -0.59125,-0.05375c-0.16125,0.01344 -0.33594,0.02688 -0.49719,0.05375h-4.60906c-14.2975,0 -25.8,11.86531 -25.8,25.8c0,14.23031 11.56969,25.8 25.8,25.8h4.58219c0.37625,0.06719 0.7525,0.06719 1.11531,0h43.84656c0.91375,0 1.8275,-0.06719 2.74125,-0.1075c0.83312,0.25531 1.73344,0.18813 2.52625,-0.18812c20.88187,-2.10969 38.36406,-16.59531 44.46469,-37.26219c0,0 0,-0.01344 0,-0.02687l2.75469,-9.62125c0.01344,-0.01344 0.01344,-0.01344 0,-0.02688l30.18063,-106.62656c0.28219,-1.04813 0.08062,-2.16344 -0.57781,-3.02344c-0.645,-0.84656 -1.66625,-1.35719 -2.74125,-1.35719zM151.02406,13.76h5.99312l-28.9175,102.25938l-2.75469,9.63469c-5.07937,17.18656 -18.94687,29.30719 -35.905,32.00812v-37.26219h1.38406c17.3075,0 32.80094,-11.34125 37.69219,-28.28594c0.01344,0 0.01344,0 0,0zM51.6,24.08c-11.78469,0 -22.4675,1.94844 -30.50312,5.29438c-4.03125,1.67969 -7.40406,3.70875 -9.94375,6.20812c-2.31125,2.27094 -3.89688,5.11969 -4.16563,8.26406c-0.06719,0.28219 -0.1075,0.57781 -0.1075,0.87344v24.08c0,3.50719 1.74688,6.69188 4.28656,9.20469c2.53969,2.51281 5.93937,4.515 9.95719,6.18125c8.0625,3.34594 18.74531,5.25406 30.47625,5.25406c11.73094,0 22.41375,-1.90812 30.47625,-5.25406c4.01781,-1.66625 7.4175,-3.66844 9.95719,-6.18125c2.53969,-2.51281 4.28656,-5.6975 4.28656,-9.20469v-24.08c0,-0.29562 -0.04031,-0.59125 -0.1075,-0.87344c-0.26875,-3.13094 -1.84094,-5.99313 -4.16562,-8.26406c-2.53969,-2.49937 -5.9125,-4.52844 -9.93031,-6.20812c-8.04906,-3.34594 -18.73188,-5.29438 -30.51656,-5.29438zM51.6,30.96c11.00531,0 20.97594,1.89469 27.86938,4.77031c3.45344,1.43781 6.11406,3.13094 7.75344,4.74344c1.63937,1.6125 2.21719,2.98313 2.21719,4.24625c0,1.26313 -0.57781,2.63375 -2.21719,4.24625c-1.63938,1.6125 -4.3,3.30563 -7.75344,4.74344c-6.89344,2.87563 -16.86406,4.77031 -27.86938,4.77031c-11.00531,0 -20.97594,-1.89469 -27.86937,-4.77031c-3.45344,-1.43781 -6.11406,-3.13094 -7.75344,-4.74344c-1.63937,-1.6125 -2.21719,-2.98312 -2.21719,-4.24625c0,-1.26312 0.57781,-2.63375 2.21719,-4.24625c1.63938,-1.6125 4.3,-3.30562 7.75344,-4.74344c6.89344,-2.87563 16.86406,-4.77031 27.86937,-4.77031zM13.76,56.02094c2.09625,1.54531 4.54188,2.87563 7.33688,4.03125c8.03562,3.35938 18.71844,5.30781 30.50312,5.30781c11.78469,0 22.4675,-1.94844 30.51656,-5.30781c2.78156,-1.15562 5.22719,-2.48594 7.32344,-4.03125v12.77906c0,1.30344 -0.57781,2.67406 -2.23062,4.3c-1.65281,1.62594 -4.32688,3.30563 -7.76688,4.73c-6.90687,2.86219 -16.8775,4.73 -27.8425,4.73c-10.965,0 -20.93562,-1.86781 -27.8425,-4.73c-3.44,-1.42437 -6.11406,-3.10406 -7.76687,-4.73c-1.65281,-1.62594 -2.23063,-2.99656 -2.23063,-4.3zM32.68,120.4h1.72v37.84h-1.72c-10.535,0 -18.92,-8.385 -18.92,-18.92c0,-10.14531 8.45219,-18.92 18.92,-18.92zM41.28,120.4h41.28v37.82656c-0.12094,0 -0.22844,0.01344 -0.33594,0.01344h-40.94406z"></path>
        </g>
    </g>
</svg>
