<svg xmlns="http://www.w3.org/2000/svg" x="0px" y="0px"
     width="25" height="25"
     viewBox="0 0 172 172"
     style=" fill:#000000;">
    <g fill="none" fill-rule="nonzero" stroke="none" stroke-width="1" stroke-linecap="butt" stroke-linejoin="miter"
       stroke-miterlimit="10" stroke-dasharray="" stroke-dashoffset="0" font-family="none" font-weight="none"
       font-size="none" text-anchor="none" style="mix-blend-mode: normal">
        <path d="M0,172v-172h172v172z" fill="none"></path>
        <g fill="#000000">
            <path
                d="M121.82438,10.32c-0.17469,0 -0.34938,0.02688 -0.52406,0.05375c-23.60969,0.13438 -54.35469,9.94375 -77.65531,33.23094c-18.23469,18.24813 -28.23219,41.10531 -31.80656,61.46313c-3.57437,20.34437 -1.23625,38.29687 7.78031,47.31344c6.42313,6.45 17.48219,9.29875 30.62406,9.29875c23.67687,0 54.69062,-9.87656 78.1525,-33.325c18.23469,-18.24812 28.21875,-41.14562 31.77969,-61.49c3.5475,-20.35781 1.22281,-38.31031 -7.74,-47.28656c-6.28875,-6.27531 -17.06562,-9.04344 -29.84469,-9.16437c-0.25531,-0.05375 -0.51063,-0.09406 -0.76594,-0.09406zM121.82438,17.2c12.08031,0 21.56719,3.06375 25.73281,7.24281c5.84531,5.84531 9.16438,22.17187 5.84531,41.23969c-3.3325,19.05438 -12.77906,40.71563 -29.885,57.79469c-21.97031,21.98375 -51.54625,31.32281 -73.27469,31.32281c-12.06688,0 -21.55375,-3.06375 -25.75969,-7.28312c-5.9125,-5.89906 -9.21813,-22.22563 -5.87219,-41.26656c3.34594,-19.04094 12.81938,-40.67531 29.91188,-57.76781c21.97031,-21.98375 51.55969,-31.2825 73.30156,-31.2825zM87.72,55.04c-2.84875,0 -5.16,2.31125 -5.16,5.16c0,2.84875 2.31125,5.16 5.16,5.16c0.09406,0 0.18813,0 0.28219,-0.01344l6.89344,6.89344l-8.89563,8.89563l-6.89344,-6.89344c0.01344,-0.09406 0.01344,-0.18812 0.01344,-0.28219c0,-2.84875 -2.31125,-5.16 -5.16,-5.16c-2.84875,0 -5.16,2.31125 -5.16,5.16c0,2.84875 2.31125,5.16 5.16,5.16c0.09406,0 0.18813,0 0.28219,-0.01344l6.89344,6.89344l-8.89563,8.89563l-6.89344,-6.89344c0.01344,-0.09406 0.01344,-0.18812 0.01344,-0.28219c0,-2.84875 -2.31125,-5.16 -5.16,-5.16c-2.84875,0 -5.16,2.31125 -5.16,5.16c0,2.84875 2.31125,5.16 5.16,5.16c0.09406,0 0.18813,0 0.28219,-0.01344l6.89344,6.89344l-7.88781,7.88781c-0.90031,0.86 -1.26313,2.15 -0.94063,3.34594c0.30906,1.20938 1.24969,2.15 2.45906,2.45906c1.19594,0.3225 2.48594,-0.04031 3.34594,-0.94063l7.88781,-7.88781l6.89344,6.89344c-0.01344,0.09406 -0.01344,0.18812 -0.01344,0.28219c0,2.84875 2.31125,5.16 5.16,5.16c2.84875,0 5.16,-2.31125 5.16,-5.16c0,-2.84875 -2.31125,-5.16 -5.16,-5.16c-0.09406,0 -0.18812,0 -0.28219,0.01344l-6.89344,-6.89344l8.89562,-8.89562l6.89344,6.89344c-0.01344,0.09406 -0.01344,0.18812 -0.01344,0.28219c0,2.84875 2.31125,5.16 5.16,5.16c2.84875,0 5.16,-2.31125 5.16,-5.16c0,-2.84875 -2.31125,-5.16 -5.16,-5.16c-0.09406,0 -0.18812,0 -0.28219,0.01344l-6.89344,-6.89344l8.89562,-8.89562l6.89344,6.89344c-0.01344,0.09406 -0.01344,0.18812 -0.01344,0.28219c0,2.84875 2.31125,5.16 5.16,5.16c2.84875,0 5.16,-2.31125 5.16,-5.16c0,-2.84875 -2.31125,-5.16 -5.16,-5.16c-0.09406,0 -0.18812,0 -0.28219,0.01344l-6.89344,-6.89344l7.88781,-7.88781c1.02125,-0.99437 1.31688,-2.49937 0.76594,-3.80281c-0.55094,-1.31688 -1.84094,-2.15 -3.26531,-2.10969c-0.90031,0.02688 -1.74688,0.40313 -2.365,1.04813l-7.88781,7.88781l-6.89344,-6.89344c0.01344,-0.09406 0.01344,-0.18812 0.01344,-0.28219c0,-2.84875 -2.31125,-5.16 -5.16,-5.16z"></path>
        </g>
    </g>
</svg>
