<svg xmlns="http://www.w3.org/2000/svg" x="0px" y="0px"
     width="25" height="25"
     viewBox="0 0 172 172"
     style=" fill:#000000;">
    <g fill="none" fill-rule="nonzero" stroke="none" stroke-width="1" stroke-linecap="butt" stroke-linejoin="miter"
       stroke-miterlimit="10" stroke-dasharray="" stroke-dashoffset="0" font-family="none" font-weight="none"
       font-size="none" text-anchor="none" style="mix-blend-mode: normal">
        <path d="M0,172v-172h172v172z" fill="none"></path>
        <g fill="#000000">
            <path
                d="M86,6.88c-0.17805,0.00415 -0.35551,0.02212 -0.53078,0.05375c-43.40174,0.29373 -78.58922,35.59269 -78.58922,79.06625c0,43.65539 35.46808,79.12 79.12,79.12c43.65192,0 79.12,-35.46461 79.12,-79.12c0,-43.46901 -35.18031,-78.76521 -78.57578,-79.06625c-0.17969,-0.03233 -0.36167,-0.0503 -0.54422,-0.05375zM86,13.76c4.62124,0 9.13268,0.44957 13.5114,1.27656l-13.5114,8.43203l-13.5114,-8.43203c4.37873,-0.82699 8.89016,-1.27656 13.5114,-1.27656zM63.29735,17.415l19.35,12.06688v20.30406l-29.82453,21.66797l-19.565,-6.3089l-5.43547,-21.86953c8.78175,-11.94386 21.09759,-21.11175 35.475,-25.86047zM108.70265,17.415c14.38046,4.74973 26.69963,13.91961 35.48172,25.86719l-5.47578,22.04422l-19.52469,6.1275l-29.65656,-21.54031v-20.53922zM22.69594,51.18344l3.82969,15.41281l-12.16766,10.21922c1.16509,-9.19889 4.05532,-17.8529 8.33797,-25.63203zM149.31078,51.19015c4.31556,7.8413 7.21258,16.57306 8.35812,25.85375l-12.22812,-10.27969zM86,55.85297l28.50765,20.7139l-10.88437,33.51313h-35.24656l-10.88437,-33.51313zM31.14141,71.69578l19.58516,6.30219l11.34125,34.93078l-12.12063,16.6961l-22.64219,-1.59235c-8.43889,-11.76964 -13.47567,-26.14456 -13.53828,-41.73687zM140.81828,71.87047l17.40828,14.62672c-0.10506,15.5561 -5.1556,29.89346 -13.59875,41.62938l-22.68922,1.60578l-11.99969,-16.83047l11.33453,-34.89047zM67.64437,116.96h36.74485l11.97281,16.79687l-8.55969,21.13047c-6.87946,2.17149 -14.19972,3.35265 -21.80235,3.35265c-7.64001,0 -14.99425,-1.1942 -21.90313,-3.38625l-8.57984,-21.19094zM33.31828,135.34922l15.91672,1.12203l5.99985,14.82828c-8.29832,-3.91249 -15.71864,-9.33587 -21.91656,-15.95031zM138.59437,135.45c-6.20668,6.59944 -13.63526,12.00628 -21.93672,15.90328l5.98641,-14.77453z"></path>
        </g>
    </g>
</svg>
